<?xml version="1.0" encoding="UTF-8" standalone="no"?>
<!DOCTYPE svg PUBLIC "-//W3C//DTD SVG 1.1//EN" "http://www.w3.org/Graphics/SVG/1.1/DTD/svg11.dtd">
<svg version="1.1" xmlns="http://www.w3.org/2000/svg" xmlns:xlink="http://www.w3.org/1999/xlink" preserveAspectRatio="xMidYMid meet" viewBox="80 60 500 540" width="512" height="512">
  <defs>
    <path d="M517.07 231.37L519.92 279.52L508.09 304.5L514.11 320.26L519.92 324.7L523.74 341.74L504.48 358.78L461.52 344.7L381.62 334.33L143.74 361L121.52 348.41L121.52 324.7L136.33 308.05L138.83 305.27L129.08 294.33L132.63 231.37L163.74 190.43L217.48 170.74L273.07 184.7L297.07 178.92L303.74 175.81L319.91 181L334.85 181L345.96 175.81L368.19 187.1L409.67 174.33L444.48 170.74L494.11 195.07L517.07 231.37Z" id="dzUjLtSGx"></path>
    <path d="M114.44 335.15C114.63 340.68 113.09 341.93 116.98 351.2C120.87 360.48 129.71 363.93 133.75 366.38C136.45 368.02 142.65 367.01 152.35 363.36C182.07 384.83 200.41 399.34 207.34 406.88C217.74 418.19 237.96 443.16 245.54 450.24C253.13 457.31 273.11 475.62 319.22 475.35C365.32 475.07 386.7 452.31 396.78 444.96C406.87 437.6 421.52 417.74 440.2 398.75C452.65 386.08 466.63 372.36 482.12 357.59C491.21 363.05 496.76 365.97 498.77 366.35C501.79 366.91 507.03 364.06 510.32 362.94C513.62 361.83 519.8 357.28 523.03 354.16C526.25 351.05 528.43 346.63 528.63 342.63C528.82 338.62 525.73 328.86 513.24 320.23C522.35 338.2 517.47 343.39 514.19 347.61C510.91 351.84 505.51 354.08 500.01 353.59C494.51 353.1 486.72 345.83 471.3 336.09C455.88 326.35 433.59 316.16 418.91 307.76C404.22 299.37 404.93 300.03 387.53 292.41C375.93 287.33 363.22 282.98 349.38 279.35C336.51 277.06 324.15 276.35 312.3 277.22C294.53 278.53 284.43 283.68 276.94 285.31C269.46 286.94 255.35 294.97 241.87 301.61C228.4 308.25 213.04 319.75 202.35 327.66C195.22 332.94 182.46 340.24 164.05 349.56C153.47 353.58 145.14 355.38 139.07 354.94C133.11 354.51 130.04 352.26 127.17 348.74C121.36 341.63 120.75 332.31 125.35 320.76C117.95 326.66 114.31 331.45 114.44 335.15Z" id="b2VOIg37pw"></path>
    <path d="M319.31 407.46C341.81 407.18 365.58 401.83 390.62 391.43C374.3 372.58 350.53 363.44 319.31 364C288.08 364.56 265.44 373.7 251.38 391.43C274.16 402.4 296.8 407.74 319.31 407.46Z" id="cp13jGX58"></path>
    <path d="M262.77 449.65C276.27 462.73 285.55 463.58 319.73 464.42C353.91 465.27 364.46 458.51 374.16 449.65C380.63 443.75 392.59 432.49 410.03 415.9C390.62 431.37 360.52 439.53 319.73 440.37C278.94 441.21 247.86 433.06 226.48 415.9C241.67 429.68 253.77 440.93 262.77 449.65Z" id="k3S6xsWK51"></path>
    <path d="M307.24 252.53C302.73 253.4 300.64 255.52 300.97 258.87C301.15 260.69 303.28 261.58 304.7 260.43C308.2 257.61 309.04 254.97 307.24 252.53Z" id="frNtQvEHd"></path>
    <path d="M335.17 259.34C335.82 258.19 335.81 256.96 335.13 255.64C334.59 254.59 333.5 253.94 332.32 253.99C331.02 254.04 330.05 254.86 329.4 256.46C328.65 258.3 328.76 259.81 329.74 260.99C330.31 261.68 331.22 261.98 332.09 261.76C333.42 261.43 334.45 260.62 335.17 259.34Z" id="esFuALvsd"></path>
    <path d="M134.07 247.9L143.53 221.98C149.2 212.88 154.48 206.16 159.37 201.79C164.26 197.43 169.45 193.41 174.95 189.74C182.17 185.73 190.27 182.51 199.27 180.08C212.76 176.44 220.3 178.83 232.91 179.15C241.32 179.35 251.69 181.95 264.01 186.93C276.92 194 284.72 198.25 287.42 199.71C290.12 201.16 297.96 203.24 310.94 205.94C309.18 205.31 306.06 203.7 301.56 201.08C294.81 197.17 286.89 191.92 281.02 188.18C275.16 184.44 272.52 181.95 268.7 179.15C264.89 176.34 264.3 174.16 254.03 169.49C243.77 164.82 217.37 163.88 213.55 163.88C209.74 163.88 198.3 163.26 170.14 180.08C141.97 196.9 133.47 215.91 128.48 224.32C123.49 232.73 114.99 252.98 118.51 276.82C120.85 292.71 126.72 303.46 136.11 309.05L138.16 305L134.07 247.9Z" id="a1O8pHVdt"></path>
    <path d="M512.53 248.9L503.07 222.98C497.39 213.88 492.11 207.16 487.23 202.79C482.34 198.43 477.14 194.41 471.64 190.74C464.43 186.73 456.33 183.51 447.33 181.08C433.84 177.44 426.3 179.83 413.68 180.15C405.27 180.35 394.91 182.95 382.59 187.93C369.68 195 361.88 199.25 359.17 200.71C356.47 202.16 348.63 204.24 335.65 206.94C337.41 206.31 340.54 204.7 345.04 202.08C351.79 198.17 359.71 192.92 365.57 189.18C371.44 185.44 374.08 182.95 377.89 180.15C381.71 177.34 382.29 175.16 392.56 170.49C402.83 165.82 429.23 164.88 433.04 164.88C436.86 164.88 448.3 164.26 476.46 181.08C504.62 197.9 513.13 216.91 518.12 225.32C523.1 233.73 531.61 253.98 528.09 277.82C525.74 293.71 519.88 304.46 510.49 310.05L508.43 306L512.53 248.9Z" id="cCN3kw2j"></path>
    <path d="M278.69 183.61C288.2 180.83 296.48 177.01 303.51 172.17C304.49 171.49 305.82 171.62 306.66 172.48C312.43 178.4 318.67 181.36 325.37 181.36C332.15 181.36 338.61 178.35 344.77 172.32C345.53 171.59 346.73 171.58 347.48 172.31C353.98 178.6 361.77 183.41 370.83 186.76C367.87 187.61 365.61 188.06 364.07 188.1C358.75 185.41 353.39 182.56 347.98 179.57C339.88 184.06 336.35 185.91 326.53 186.36C316.7 186.81 310.82 186.15 303.73 180.98C299 183.24 292.29 184.72 283.6 185.41C270.09 187.21 268.45 186.61 278.69 183.61Z" id="hszcMe3DX"></path>
    <path d="M129.61 252.81C133.33 230.67 153.53 218.55 159.74 214.15C165.96 209.75 179.34 201.27 203.12 201.08C217.92 200.97 229.76 216.41 238.64 247.4C239.29 249.64 238.12 252.01 235.95 252.86C218.91 259.56 203.92 266.92 190.98 274.94C177.98 283 163.65 293.77 148 307.27C146.4 308.65 143.93 308.16 142.97 306.28C131.76 284.36 127.31 266.53 129.61 252.81Z" id="e1Y6w7yOMW"></path>
    <path d="M141.91 248.19C144.72 233.28 159.96 225.12 164.66 222.16C169.35 219.2 179.46 213.48 197.41 213.36C208.61 213.29 217.56 223.69 224.24 244.57C224.71 246.04 223.93 247.62 222.47 248.12C209.49 252.66 198.08 257.65 188.24 263.09C178.37 268.55 167.5 275.84 155.64 284.98C154.46 285.88 152.77 285.54 152.03 284.26C143.54 269.46 140.17 257.44 141.91 248.19Z" id="e1ffXhMVV"></path>
    <path d="M516.98 255.81C513.26 233.67 493.07 221.55 486.85 217.15C480.64 212.75 467.25 204.27 443.48 204.08C428.68 203.97 416.83 219.41 407.95 250.4C407.31 252.64 408.48 255.01 410.65 255.86C427.69 262.56 442.68 269.92 455.62 277.94C468.62 286 482.94 296.77 498.59 310.27C500.19 311.65 502.66 311.16 503.63 309.28C514.84 287.36 519.29 269.53 516.98 255.81Z" id="b4XHEx13FU"></path>
    <path d="M214.31 253.66C214.31 259.92 202.62 263.86 192.6 271.91C182.38 280.12 171.59 288.64 169.3 284.41C164.57 275.68 163.85 267.17 163.85 253.66C163.85 227.17 175.16 205.66 189.08 205.66C203.01 205.66 214.31 227.17 214.31 253.66Z" id="b1hSjpjU8c"></path>
    <path d="M190.89 224.71C197.86 229.56 196.64 229.38 202.41 242.73C204.15 230.25 199.11 217.09 192.88 216.34C186.65 215.6 186.25 221.34 190.89 224.71Z" id="kNE0ql5DI"></path>
    <path d="M504.49 251.89C501.68 236.06 486.44 227.39 481.75 224.25C477.06 221.1 466.96 215.03 449.02 214.9C437.84 214.82 428.9 225.87 422.21 248.03C421.73 249.62 422.56 251.3 424.11 251.88C437.03 256.68 448.38 261.96 458.18 267.72C468.02 273.49 478.85 281.22 490.68 290.89C491.88 291.87 493.66 291.51 494.39 290.16C502.86 274.46 506.23 261.71 504.49 251.89Z" id="c1HIzKaBq"></path>
    <path d="M432.74 258.61C432.74 264.87 444.43 268.81 454.45 276.86C464.67 285.07 475.46 293.59 477.75 289.35C482.48 280.63 483.2 272.12 483.2 258.61C483.2 232.12 471.89 210.61 457.97 210.61C444.05 210.61 432.74 232.12 432.74 258.61Z" id="i2twe2uB00"></path>
    <path d="M463.6 230.14C474.33 238.71 473.28 255.95 473.19 268.57C479.74 254.66 473.51 224.58 466.57 222.76C459.63 220.93 459.73 227.15 463.6 230.14Z" id="e1IHXPEPUJ"></path>
  </defs>
  <g>
    <g>
      <g>
        <use xlink:href="#dzUjLtSGx" opacity="1" fill="#58e000" fill-opacity="1"></use>
      </g>
      <g>
        <use xlink:href="#b2VOIg37pw" opacity="1" fill="#000000" fill-opacity="1"></use>
        <g>
          <use xlink:href="#b2VOIg37pw" opacity="1" fill-opacity="0" stroke="#000000" stroke-width="1" stroke-opacity="1"></use>
        </g>
      </g>
      <g>
        <use xlink:href="#cp13jGX58" opacity="1" fill="#ff0000" fill-opacity="1"></use>
      </g>
      <g>
        <use xlink:href="#k3S6xsWK51" opacity="1" fill="#58e000" fill-opacity="1"></use>
      </g>
      <g>
        <use xlink:href="#frNtQvEHd" opacity="1" fill="#000000" fill-opacity="1"></use>
      </g>
      <g>
        <use xlink:href="#esFuALvsd" opacity="1" fill="#000000" fill-opacity="1"></use>
      </g>
      <g>
        <use xlink:href="#a1O8pHVdt" opacity="1" fill="#000000" fill-opacity="1"></use>
        <g>
          <use xlink:href="#a1O8pHVdt" opacity="1" fill-opacity="0" stroke="#060606" stroke-width="1" stroke-opacity="1"></use>
        </g>
      </g>
      <g>
        <use xlink:href="#cCN3kw2j" opacity="1" fill="#000000" fill-opacity="1"></use>
        <g>
          <use xlink:href="#cCN3kw2j" opacity="1" fill-opacity="0" stroke="#060606" stroke-width="1" stroke-opacity="1"></use>
        </g>
      </g>
      <g>
        <use xlink:href="#hszcMe3DX" opacity="1" fill="#000000" fill-opacity="1"></use>
        <g>
          <use xlink:href="#hszcMe3DX" opacity="1" fill-opacity="0" stroke="#060606" stroke-width="1" stroke-opacity="1"></use>
        </g>
      </g>
      <g>
        <use xlink:href="#e1Y6w7yOMW" opacity="1" fill="#000000" fill-opacity="1"></use>
        <g>
          <use xlink:href="#e1Y6w7yOMW" opacity="1" fill-opacity="0" stroke="#000000" stroke-width="1" stroke-opacity="1"></use>
        </g>
      </g>
      <g>
        <use xlink:href="#e1ffXhMVV" opacity="1" fill="#ffffff" fill-opacity="1"></use>
      </g>
      <g>
        <use xlink:href="#b4XHEx13FU" opacity="1" fill="#000000" fill-opacity="1"></use>
        <g>
          <use xlink:href="#b4XHEx13FU" opacity="1" fill-opacity="0" stroke="#000000" stroke-width="1" stroke-opacity="1"></use>
        </g>
      </g>
      <g>
        <use xlink:href="#b1hSjpjU8c" opacity="1" fill="#000000" fill-opacity="1"></use>
      </g>
      <g>
        <use xlink:href="#kNE0ql5DI" opacity="1" fill="#ffffff" fill-opacity="1"></use>
      </g>
      <g>
        <use xlink:href="#c1HIzKaBq" opacity="1" fill="#ffffff" fill-opacity="1"></use>
      </g>
      <g>
        <use xlink:href="#i2twe2uB00" opacity="1" fill="#000000" fill-opacity="1"></use>
      </g>
      <g>
        <use xlink:href="#e1IHXPEPUJ" opacity="1" fill="#ffffff" fill-opacity="1"></use>
      </g>
    </g>
  </g>
</svg>
